<svg width="25" height="24" viewBox="0 0 25 24" fill="none" xmlns="http://www.w3.org/2000/svg">
<path d="M12.7364 7.1931C10.0763 7.1931 7.92941 9.33998 7.92941 12.0001C7.92941 14.6603 10.0763 16.8072 12.7364 16.8072C15.3966 16.8072 17.5435 14.6603 17.5435 12.0001C17.5435 9.33998 15.3966 7.1931 12.7364 7.1931ZM12.7364 15.1244C11.0161 15.1244 9.61222 13.7204 9.61222 12.0001C9.61222 10.2798 11.0161 8.87592 12.7364 8.87592C14.4568 8.87592 15.8607 10.2798 15.8607 12.0001C15.8607 13.7204 14.4568 15.1244 12.7364 15.1244ZM17.7403 5.87592C17.1193 5.87592 16.6177 6.37748 16.6177 6.99857C16.6177 7.61967 17.1193 8.12123 17.7403 8.12123C18.3614 8.12123 18.863 7.62201 18.863 6.99857C18.8632 6.85109 18.8343 6.70502 18.7779 6.56873C18.7216 6.43244 18.6389 6.30861 18.5346 6.20432C18.4303 6.10004 18.3065 6.01735 18.1702 5.961C18.0339 5.90464 17.8878 5.87573 17.7403 5.87592ZM22.1068 12.0001C22.1068 10.7064 22.1185 9.42435 22.0458 8.13295C21.9732 6.63295 21.631 5.3017 20.5341 4.20482C19.4349 3.1056 18.106 2.76576 16.606 2.6931C15.3122 2.62045 14.0302 2.63217 12.7388 2.63217C11.445 2.63217 10.163 2.62045 8.8716 2.6931C7.3716 2.76576 6.04035 3.10795 4.94347 4.20482C3.84425 5.30404 3.50441 6.63295 3.43175 8.13295C3.3591 9.4267 3.37081 10.7087 3.37081 12.0001C3.37081 13.2915 3.3591 14.5759 3.43175 15.8673C3.50441 17.3673 3.8466 18.6986 4.94347 19.7954C6.04269 20.8947 7.3716 21.2345 8.8716 21.3072C10.1653 21.3798 11.4474 21.3681 12.7388 21.3681C14.0325 21.3681 15.3146 21.3798 16.606 21.3072C18.106 21.2345 19.4372 20.8923 20.5341 19.7954C21.6333 18.6962 21.9732 17.3673 22.0458 15.8673C22.1208 14.5759 22.1068 13.2939 22.1068 12.0001ZM20.0443 17.5267C19.8732 17.9533 19.6669 18.272 19.3364 18.6001C19.006 18.9306 18.6896 19.1369 18.263 19.3079C17.0302 19.7978 14.1028 19.6876 12.7364 19.6876C11.37 19.6876 8.44035 19.7978 7.20753 19.3103C6.78097 19.1392 6.46222 18.9329 6.1341 18.6025C5.80363 18.272 5.59738 17.9556 5.42628 17.529C4.93878 16.2939 5.04894 13.3665 5.04894 12.0001C5.04894 10.6337 4.93878 7.70404 5.42628 6.47123C5.59738 6.04467 5.80363 5.72592 6.1341 5.39779C6.46456 5.06967 6.78097 4.86107 7.20753 4.68998C8.44035 4.20248 11.37 4.31264 12.7364 4.31264C14.1028 4.31264 17.0325 4.20248 18.2653 4.68998C18.6919 4.86107 19.0107 5.06732 19.3388 5.39779C19.6693 5.72826 19.8755 6.04467 20.0466 6.47123C20.5341 7.70404 20.4239 10.6337 20.4239 12.0001C20.4239 13.3665 20.5341 16.2939 20.0443 17.5267Z" fill="#294F74"/>
</svg>
