<svg width="21" height="22" viewBox="0 0 21 22" fill="none" xmlns="http://www.w3.org/2000/svg">
<path d="M19.1818 3.74128L19.7867 3.70136C19.7789 3.5826 19.7362 3.4688 19.6639 3.37421C19.5917 3.27961 19.4932 3.20842 19.3807 3.16955C19.2682 3.13067 19.1468 3.12585 19.0316 3.15567C18.9164 3.18549 18.8125 3.24864 18.733 3.33721L19.1818 3.74128ZM18.5794 7.32108C18.5794 7.16065 18.5157 7.00679 18.4022 6.89335C18.2888 6.77991 18.1349 6.71618 17.9745 6.71618C17.8141 6.71618 17.6602 6.77991 17.5468 6.89335C17.4334 7.00679 17.3697 7.16065 17.3697 7.32108H18.5794ZM2.27211 17.0491V16.4442C2.14224 16.444 2.01576 16.4857 1.91138 16.563C1.80701 16.6403 1.73029 16.7491 1.69257 16.8734C1.65485 16.9977 1.65814 17.1308 1.70195 17.2531C1.74575 17.3754 1.82775 17.4803 1.93581 17.5523L2.27211 17.0491ZM3.47943 3.74128L4.0468 3.52957C4.00557 3.41912 3.93297 3.32313 3.83792 3.2534C3.74286 3.18367 3.62951 3.14323 3.51179 3.13706C3.39406 3.13089 3.2771 3.15926 3.17528 3.21867C3.07347 3.27809 2.99123 3.36596 2.93868 3.4715L3.47943 3.74128ZM8.31113 14.6295L8.73938 15.0565C8.81203 14.9836 8.86489 14.8934 8.89295 14.7944C8.92101 14.6954 8.92334 14.5908 8.89972 14.4907C8.8761 14.3905 8.82731 14.298 8.75797 14.2219C8.68864 14.1459 8.60104 14.0888 8.50348 14.056L8.31113 14.6295ZM17.0503 4.91842L16.6027 5.32491L16.8204 5.56566L17.141 5.51727L17.0503 4.91842ZM18.5794 3.7812C18.6411 4.72243 18.583 5.29345 18.4306 5.72414C18.283 6.14152 18.0241 6.4851 17.556 6.93394L18.3931 7.80742C18.923 7.2993 19.3318 6.80086 19.5714 6.12821C19.8049 5.46766 19.8532 4.70307 19.7867 3.70136L18.5794 3.7812ZM18.5794 8.20181V7.32108H17.3697V8.20302H18.5794V8.20181ZM10.1233 7.42028V8.58048H11.3331V7.42028H10.1233ZM10.1233 8.58048V9.18538H11.3331V8.58048H10.1233ZM14.3997 3.13638C13.8375 3.1367 13.2809 3.24776 12.7616 3.46322C12.2423 3.67867 11.7705 3.99431 11.3731 4.39211C10.9758 4.7899 10.6607 5.26207 10.4459 5.78164C10.231 6.30122 10.1206 6.85803 10.1209 7.42028H11.3306C11.3303 7.0168 11.4095 6.61721 11.5636 6.24433C11.7178 5.87146 11.9439 5.53261 12.229 5.24714C12.5141 4.96167 12.8527 4.73517 13.2253 4.58058C13.598 4.42599 13.9975 4.34634 14.401 4.34618V3.13638H14.3997ZM17.3684 8.20181C17.3697 13.4233 13.144 17.654 7.93369 17.654V18.8638C13.813 18.8638 18.5794 14.0899 18.5794 8.20181H17.3684ZM2.91328 3.953C3.57137 5.70962 6.03924 9.18538 10.7282 9.18538V7.97558C6.71669 7.97558 4.59602 4.99947 4.04559 3.52957L2.91328 3.953ZM2.93868 3.4715C1.67208 6.00723 1.47732 8.46797 2.39793 10.5633C3.31612 12.6527 5.29162 14.2593 8.11999 15.2029L8.50348 14.056C5.89649 13.185 4.24762 11.7671 3.50484 10.0758C2.76448 8.39054 2.87214 6.31331 4.0214 4.01107L2.93868 3.4715ZM7.88288 14.2024C7.15462 14.9319 4.96499 16.4442 2.27211 16.4442V17.654C5.3763 17.654 7.85748 15.9409 8.73938 15.0565L7.88288 14.2024ZM17.4991 4.51313C17.108 4.07936 16.6301 3.73265 16.0963 3.49547C15.5626 3.25829 14.985 3.13595 14.401 3.13638V4.34618C15.2732 4.34618 16.0583 4.72243 16.6027 5.32491L17.4991 4.51313ZM17.141 5.51727C18.1046 5.35983 18.9846 4.87537 19.6331 4.14535L18.733 3.33721C18.2718 3.85832 17.6458 4.20548 16.9595 4.32077L17.141 5.51727ZM1.93581 17.5523C3.92099 18.8759 6.00174 18.8638 7.93369 18.8638V17.654C5.96182 17.654 4.24641 17.6407 2.60842 16.5458L1.93581 17.5523Z" fill="#294F74"/>
</svg>
